<?xml version="1.0" encoding="utf-8"?>
<!-- Generator: Adobe Illustrator 28.2.0, SVG Export Plug-In . SVG Version: 6.00 Build 0)  -->
<svg version="1.1" id="Layer_1" xmlns="http://www.w3.org/2000/svg" xmlns:xlink="http://www.w3.org/1999/xlink" x="0px" y="0px"
	 viewBox="0 0 1200 1200" style="enable-background:new 0 0 1200 1200;" xml:space="preserve">
<style type="text/css">
	.st0{fill:#D69E3D;}
</style>
<g>
	<path class="st0" d="M1089.3,248.3l-420-230.6c-43.4-23.8-95.2-23.8-138.6,0l-420,230.6C64.6,273.6,36,322,36,374.6v450.9
		c0,52.6,28.6,101,74.7,126.2l420,230.6c21.7,11.9,45.5,17.9,69.3,17.9c23.8,0,47.6-6,69.3-17.9l420-230.6
		c46.1-25.3,74.7-73.7,74.7-126.2V374.6C1164,322,1135.4,273.6,1089.3,248.3L1089.3,248.3z M133.8,290.4l420-230.6
		c14.5-7.9,30.3-11.9,46.2-11.9c15.9,0,31.7,4,46.2,11.9l420,230.6c30.7,16.9,49.8,49.1,49.8,84.1v426.3l-89.5-64.7
		c-18.2-12.5-39.4-19.1-61.5-19.1H840c-18.5,0-35.8,7.2-48.9,20.3c-11.4,11.5-18,26.4-19.5,42.4l-84.3-52.4
		c-0.9-0.7-1.9-1.3-2.9-1.8c-13.2-7.1-28.2-9.4-43.3-6.8c-16.6,3-31.2,12.6-41.1,25.8c-9.8-13.2-24.4-22.8-41.1-25.8
		c-15-2.7-30-0.3-43.3,6.8c-1,0.5-2,1.2-2.9,1.8l-84.4,52.4c-1.5-16-8-30.9-19.5-42.4c-13-13.1-30.4-20.3-48.9-20.3H235
		c-22.1,0-43.3,6.6-62,19.4l-89,64.4V374.6C84,339.5,103.1,307.3,133.8,290.4L133.8,290.4z M89.3,856.3l111.3-80.5
		c10.1-7,22-10.6,34.3-10.6h125.1c5.6,0,10.9,2.2,14.8,6.2c4,4,6.1,9.3,6.1,14.7l0,1.5c0,11.5-9.4,20.8-21,20.8h-81.3
		c-13.2,0-24,10.8-24,24s10.8,24,24,24h98.4c12.4,0,24.4-3.4,34.9-9.9l127.5-79.2c2.6-1.2,6.3-2.1,11-1.2
		c7.2,1.3,13.3,7.5,14.4,14.8c1,6.5-1.4,12.7-6.3,16.9l-189.9,127c-9.9,6.6-21.5,10.1-33.4,10.1l-153.4,0c-0.6,0-1.2,0.1-1.9,0.2
		l-46.2-25.4C112.5,897.9,96.9,878.6,89.3,856.3L89.3,856.3z M646.2,1140.2c-28.9,15.9-63.5,15.9-92.4,0L267.1,982.8h68.2
		c21.4,0,42.1-6.3,60-18.1l190.8-127.6c0.5-0.3,0.9-0.7,1.4-1c4.8-3.7,9-8.1,12.5-12.8c3.5,4.8,7.7,9.1,12.4,12.8
		c0.5,0.4,0.9,0.7,1.4,1l190.9,127.6c17.8,11.8,38.5,18.1,59.9,18.1h68.2L646.2,1140.2z M1066.2,909.6L1020,935
		c-0.6,0-1.2-0.2-1.9-0.2H864.7c-11.9,0-23.4-3.5-33.3-10l-189.9-127c-4.9-4.1-7.2-10.4-6.3-16.9c1.1-7.3,7.2-13.5,14.3-14.8
		c4.6-0.8,8.4,0.1,11,1.2L788,846.4c10.5,6.5,22.5,9.9,34.9,9.9h98.4c13.2,0,24-10.8,24-24s-10.8-24-24-24H840
		c-11.5,0-20.9-9.3-21-21l0-1.3c0-5.6,2.1-10.9,6.1-14.9c4-4,9.2-6.2,14.8-6.2H965c12.3,0,24.2,3.7,33.9,10.3l111.8,80.9
		C1103.1,878.6,1087.5,897.9,1066.2,909.6L1066.2,909.6z"/>
	<path class="st0" d="M698.1,411.8h35.1c-0.5,4.4-0.8,8.9-0.8,13.4c0,64.6,52.5,117.1,117,117.1c64.6,0,117.1-52.5,117.1-117.1
		c0-4.5-0.3-9-0.8-13.4h29.6c13.2,0,24-10.8,24-24s-10.8-24-24-24H964c-1.5-46.2-28.1-78.1-58-87.2c-22.6-6.9-43.2-2.4-55.6,2
		c-12.3-4.4-33-8.8-55.6-2c-29.7,9-56.1,40.8-57.8,87.2h-38.9c-13.2,0-24,10.8-24,24C674.1,401,684.8,411.8,698.1,411.8L698.1,411.8
		z M918.5,425.1c0,38.1-31,69.1-69.1,69.1c-38.1,0-69-31-69-69.1c0-4.5,0.5-9,1.3-13.4h135.5C918.1,416.1,918.5,420.6,918.5,425.1
		L918.5,425.1z M808.7,322.6c15.1-4.5,30.1,3.1,30.1,3.1c7.1,3.9,15.9,3.9,23.1,0.1c0.2-0.1,15.2-7.8,30.3-3.2
		c10.3,3.1,22.3,17.6,23.7,41.2H785.2C786.7,340.1,798.4,325.6,808.7,322.6L808.7,322.6z"/>
	<path class="st0" d="M787.4,539.1c-40,10.1-76.3,53.8-64.7,114.9c2.2,11.5,12.3,19.5,23.6,19.5c1.5,0,3-0.1,4.5-0.4
		c13-2.5,21.6-15,19.1-28c-6.2-32.6,10.1-54.6,29.3-59.4c12.8-3.3,20.6-16.3,17.4-29.2C813.3,543.6,800.2,535.8,787.4,539.1
		L787.4,539.1z"/>
	<path class="st0" d="M915.3,539.1c-12.8-3.2-25.9,4.5-29.1,17.4c-3.2,12.9,4.5,25.9,17.4,29.1c19.3,4.9,36.1,27.6,29.2,60
		c-2.8,13,5.5,25.7,18.5,28.5c1.7,0.4,3.4,0.5,5,0.5c11.1,0,21-7.7,23.4-19C992.9,593.8,956.4,549.5,915.3,539.1L915.3,539.1z"/>
	<path class="st0" d="M128.4,705.4c4.5,0,9-1.2,13-3.9c69.3-44.9,147-35.7,222.2-26.9c63.1,7.5,122.6,14.5,176.4-8.6
		c12.2-5.2,17.8-19.3,12.6-31.5c-5.2-12.2-19.3-17.8-31.5-12.6c-42,18-95.4,11.7-151.9,5c-79.8-9.5-170.2-20.1-254,34.2
		c-11.1,7.2-14.3,22.1-7.1,33.2C112.9,701.5,120.6,705.4,128.4,705.4L128.4,705.4z"/>
	<path class="st0" d="M128.4,629.9c4.5,0,9-1.2,13-3.9c69.3-44.9,147-35.7,222.2-26.9c63,7.5,122.6,14.5,176.4-8.6
		c12.2-5.2,17.8-19.3,12.6-31.5c-5.2-12.2-19.3-17.8-31.5-12.6c-42,18-95.4,11.7-151.9,5c-79.8-9.4-170.2-20.1-254,34.3
		c-11.1,7.2-14.3,22.1-7.1,33.2C112.9,626,120.6,629.9,128.4,629.9L128.4,629.9z"/>
	<path class="st0" d="M275.7,526.5c43.7,0,77.9-25.4,77.9-57.8c0-32.4-34.2-57.8-77.9-57.8s-77.9,25.4-77.9,57.8
		S232,526.5,275.7,526.5z M275.7,459c16.8,0,27.3,6.5,29.6,9.8c-2.3,3.3-12.7,9.8-29.6,9.8c-16.8,0-27.3-6.5-29.6-9.8
		C248.4,465.5,258.8,459,275.7,459z"/>
	<path class="st0" d="M358.2,404.9c0,32.4,34.2,57.8,77.9,57.8s77.9-25.4,77.9-57.8c0-32.4-34.2-57.8-77.9-57.8
		C392.4,347.1,358.2,372.5,358.2,404.9z M436.1,395.1c16.8,0,27.3,6.5,29.6,9.8c-2.3,3.3-12.7,9.8-29.6,9.8
		c-16.8,0-27.3-6.5-29.6-9.8C408.8,401.6,419.2,395.1,436.1,395.1z"/>
	<path class="st0" d="M305.9,369.5c43.7,0,77.9-25.4,77.9-57.8c0-32.4-34.2-57.8-77.9-57.8c-43.7,0-77.9,25.4-77.9,57.8
		C228,344.2,262.2,369.5,305.9,369.5z M305.9,302c16.8,0,27.3,6.5,29.6,9.8c-2.3,3.3-12.7,9.8-29.6,9.8c-16.8,0-27.3-6.5-29.6-9.8
		C278.6,308.5,289,302,305.9,302z"/>
</g>
</svg>
