<?xml version="1.0" encoding="utf-8"?>
<!-- Generator: Adobe Illustrator 28.2.0, SVG Export Plug-In . SVG Version: 6.00 Build 0)  -->
<svg version="1.1" id="Layer_1" xmlns="http://www.w3.org/2000/svg" xmlns:xlink="http://www.w3.org/1999/xlink" x="0px" y="0px"
	 viewBox="0 0 64 64" style="enable-background:new 0 0 64 64;" xml:space="preserve">
<style type="text/css">
	.st0{fill:#D69E3D;}
</style>
<g>
	<path class="st0" d="M43.5,64H20.3c-5.5,0-10.4-3.3-12.4-8.4L2.1,41.4c-0.2-0.5,0-1.1,0.5-1.3s1.1,0,1.3,0.5l0,0l5.8,14.3
		c1.7,4.3,5.9,7.1,10.6,7.1h23.2c4.7,0,8.9-2.9,10.6-7.3l5.5-14.1c0.2-0.5,0.8-0.8,1.3-0.6c0.5,0.2,0.8,0.8,0.6,1.3L56,55.5
		C54,60.6,49,64,43.5,64z"/>
	<path class="st0" d="M61.2,42H48c-0.6,0-1-0.4-1-1s0.4-1,1-1h13.2c0.4,0,0.8-0.4,0.8-0.8c0,0,0,0,0,0v-1.4c0-0.4-0.4-0.8-0.8-0.8
		c0,0,0,0,0,0H2.8C2.4,37,2,37.4,2,37.8c0,0,0,0,0,0v1.4C2,39.6,2.4,40,2.8,40c0,0,0,0,0,0H34c0.6,0,1,0.4,1,1s-0.4,1-1,1H2.8
		C1.3,42,0,40.7,0,39.2v-1.4C0,36.3,1.3,35,2.8,35h58.4c1.6,0,2.8,1.3,2.8,2.8v1.4C64,40.7,62.7,42,61.2,42z"/>
	<path class="st0" d="M14,47H8c-0.6,0-1-0.4-1-1s0.4-1,1-1h6c0.6,0,1,0.4,1,1S14.6,47,14,47z"/>
	<path class="st0" d="M28,47h-6c-0.6,0-1-0.4-1-1s0.4-1,1-1h6c0.6,0,1,0.4,1,1S28.6,47,28,47z"/>
	<path class="st0" d="M39,47h-3c-0.6,0-1-0.4-1-1s0.4-1,1-1h3c0.6,0,1,0.4,1,1S39.6,47,39,47z"/>
	<path class="st0" d="M55.8,47H50c-0.6,0-1-0.4-1-1s0.4-1,1-1h5.8c0.6,0,1,0.4,1,1S56.3,47,55.8,47z"/>
	<path class="st0" d="M21,51h-6c-0.6,0-1-0.4-1-1s0.4-1,1-1h6c0.6,0,1,0.4,1,1S21.6,51,21,51z"/>
	<path class="st0" d="M35,51h-6c-0.6,0-1-0.4-1-1s0.4-1,1-1h6c0.6,0,1,0.4,1,1S35.6,51,35,51z"/>
	<path class="st0" d="M49,51h-6c-0.6,0-1-0.4-1-1s0.4-1,1-1h6c0.6,0,1,0.4,1,1S49.6,51,49,51z"/>
	<path class="st0" d="M14,55H8.3c-0.6,0-1-0.4-1-1s0.4-1,1-1H14c0.6,0,1,0.4,1,1S14.6,55,14,55z"/>
	<path class="st0" d="M28,55h-6c-0.6,0-1-0.4-1-1s0.4-1,1-1h6c0.6,0,1,0.4,1,1S28.6,55,28,55z"/>
	<path class="st0" d="M42,55h-6c-0.6,0-1-0.4-1-1s0.4-1,1-1h6c0.6,0,1,0.4,1,1S42.6,55,42,55z"/>
	<path class="st0" d="M55.5,55H50c-0.6,0-1-0.4-1-1s0.4-1,1-1h5.5c0.6,0,1,0.4,1,1S56.1,55,55.5,55z"/>
	<path class="st0" d="M21,59h-6c-0.6,0-1-0.4-1-1s0.4-1,1-1h6c0.6,0,1,0.4,1,1S21.6,59,21,59z"/>
	<path class="st0" d="M35,59h-6c-0.6,0-1-0.4-1-1s0.4-1,1-1h6c0.6,0,1,0.4,1,1S35.6,59,35,59z"/>
	<path class="st0" d="M49,59h-6c-0.6,0-1-0.4-1-1s0.4-1,1-1h6c0.6,0,1,0.4,1,1S49.6,59,49,59z"/>
	<path class="st0" d="M41,49c-0.3,0-0.5-0.1-0.7-0.3l-12-12c-0.4-0.4-0.4-1,0-1.4s1-0.4,1.4,0c0,0,0,0,0,0L41,46.6l11.3-11.3
		c0.4-0.4,1-0.4,1.4,0s0.4,1,0,1.4c0,0,0,0,0,0l-12,12C41.5,48.9,41.3,49,41,49z"/>
	<g>
		<path class="st0" d="M2.8,37c-0.4,0-0.8-0.3-0.9-0.7l0-0.1c0-0.1,0-0.1,0-0.2c-0.2-1.5-0.3-3.1-0.5-4.6l-0.2-2.3l1-0.2l-1,0.1
			c0-0.1,0-0.1,0-0.2c0,0,0-0.1,0-0.1c-0.9-1.3-1.2-2.8-0.9-4.3c1.2-4.2,8-4.4,9.4-4.4h15.9c0.6,0,1,0.4,1,1c0,0.5-0.4,1-1,1
			c0,0,0,0,0,0h-16c-2.3,0-6.8,0.6-7.4,2.9c-0.1,1,0.1,2,0.7,2.8C2.8,27.8,2.9,28,3,28.2c0.1,0.2,0.1,0.4,0.1,0.6c0,0,0,0.1,0,0.1
			l0.2,2.4c0.2,1.5,0.3,3.1,0.5,4.6c0.1,0.5-0.2,1-0.7,1.1C3,37,2.9,37,2.8,37z"/>
		<path class="st0" d="M32.9,30H2c-0.6,0-1-0.4-1-1s0.4-1,1-1h30.9c0.6,0,1,0.4,1,1S33.4,30,32.9,30z"/>
		<path class="st0" d="M18.7,37c-0.5,0-0.9-0.3-1-0.8l0-0.1l-0.7-7l1-0.2L17,29c0-0.1,0-0.2-0.1-0.3c-0.9-1.3-1.2-2.8-0.9-4.3
			c0.5-1.9,2.4-3.2,5.3-3.9c1.3-0.3,2.7-0.4,4.1-0.5c0.2,0,0.8,0,1.7,0.1c3.1,0.3,6.9,1.3,7.8,4.3c0,0.1,0,0.2,0.1,0.3
			c0.2,1.2,0,2.4-0.6,3.4c0,0.1-0.1,0.1-0.1,0.2c-0.1,0.1-0.1,0.2-0.2,0.3c-0.1,0.1-0.1,0.3-0.1,0.5l-0.7,7l-1,0l-1-0.1l0.8-7.2
			c0.1-0.3,0.2-0.6,0.3-0.9c0.1-0.2,0.2-0.4,0.3-0.6c0.4-0.7,0.6-1.4,0.5-2.2l1-0.3l-1,0.2c-0.6-2.1-4.4-2.7-6-2.8
			C26.2,22,25.6,22,25.5,22c-1.2,0-2.5,0.2-3.7,0.4c-1.5,0.3-3.5,1-3.8,2.5c-0.2,1,0.1,2,0.7,2.8c0.2,0.3,0.3,0.7,0.4,1.1
			c0,0,0,0.1,0,0.1l0.7,7c0.1,0.5-0.3,1-0.9,1.1C18.8,37,18.8,37,18.7,37z"/>
	</g>
	<g>
		<path class="st0" d="M21.1,22c-0.3,0-0.5-0.1-0.7-0.3l-8.1-8.1c-3.1-3.1-3.1-8.2,0-11.3c0,0,0,0,0,0c3.1-3.1,8.2-3.1,11.3,0
			c0,0,0,0,0,0L27,5.6c0,0,0.1,0,0.1,0.1l12,12c0.4,0.4,0.4,1,0,1.4c-0.4,0.4-1,0.4-1.4,0L25.7,7.2c0,0-0.1,0-0.1-0.1l-3.3-3.4
			c-2.3-2.3-6.1-2.4-8.5,0s-2.4,6.1,0,8.5c0,0,0,0,0,0l8.1,8.1c0.4,0.4,0.4,1,0,1.4C21.7,21.9,21.4,22,21.1,22L21.1,22z"/>
		<path class="st0" d="M36.9,18c-0.1,0-0.1,0-0.2,0l-8.9-2c-0.5-0.1-0.9-0.7-0.8-1.2s0.7-0.9,1.2-0.8l0,0l8.9,2
			c0.5,0.1,0.9,0.7,0.8,1.2C37.8,17.7,37.4,18,36.9,18z"/>
		<path class="st0" d="M27,22.1c-0.3,0-0.5-0.1-0.7-0.3C21.1,16.4,16,10.9,11.1,5.3c-0.4-0.4-0.3-1,0.1-1.4c0.4-0.4,1-0.3,1.4,0.1
			l0,0c4.9,5.5,9.9,11,15.1,16.4c0.4,0.4,0.4,1,0,1.4C27.5,22,27.2,22.1,27,22.1z"/>
		<path class="st0" d="M27.3,8.4c-0.1,0-0.1,0-0.2,0l-8.3-1.8C18.3,6.5,17.9,6,18,5.4s0.6-0.9,1.2-0.8c0,0,0,0,0,0l8.3,1.8
			c0.5,0.1,0.9,0.6,0.8,1.2C28.2,8.1,27.8,8.4,27.3,8.4L27.3,8.4z"/>
	</g>
	<g>
		<path class="st0" d="M33.9,25.8c-0.1,0-0.2,0-0.3-0.1c-0.5-0.2-0.8-0.7-0.6-1.3c0,0,0,0,0,0c0-0.1,0.1-0.2,0.1-0.2l0,0
			c1-1.9,2.3-3.8,3.6-5.5c0.1-0.1,0.1-0.2,0.2-0.3l0.6-0.7c0.6-0.7,1.2-1.4,1.8-2.1c0,0,0-0.1,0.1-0.1c0.5-0.5,0.9-1,1.4-1.4
			C41.9,13,43,12,44.2,11c1.1-0.9,2.2-1.7,3.2-2.5c1.5-1,3-2,4.7-2.7c4.7-2.3,8.5-2.4,10.5-0.4c0.6,0.6,1,1.3,1.2,2.1
			c1.2,4-1.8,10.7-7.6,17.3c-0.4,0.4-1,0.5-1.4,0.1c-0.4-0.4-0.5-1-0.1-1.4l0,0c5.1-5.8,8.1-12.2,7.1-15.4c-0.1-0.4-0.3-0.9-0.7-1.2
			c-1.3-1.3-4.4-1.1-8.2,0.8c-1.5,0.7-3,1.6-4.4,2.6c-1,0.7-2.1,1.5-3.1,2.4c-1.1,0.9-2.2,1.9-3.2,2.9c-0.4,0.4-0.9,0.9-1.3,1.3
			c0,0,0,0.1-0.1,0.1c-0.6,0.7-1.2,1.4-1.8,2.1l-0.6,0.7c-0.1,0.1-0.1,0.2-0.2,0.3c-1.3,1.6-2.5,3.4-3.4,5.2
			C34.7,25.6,34.3,25.8,33.9,25.8z"/>
		<path class="st0" d="M51.9,24.1c-0.6,0-1-0.4-1-1c0-0.3,0.1-0.5,0.3-0.7c4.4-4.4,8-9.5,10.7-15.1l0,0l0,0c0.2-0.5,0.8-0.7,1.3-0.5
			c0.3,0.2,0.6,0.5,0.6,0.9c0,0.2,0,0.3-0.1,0.5l0,0c-2.8,5.8-6.6,11-11.1,15.6C52.4,24,52.2,24.1,51.9,24.1z"/>
		<path class="st0" d="M38,29c-0.6,0-1-0.4-1-1c0,0,0,0,0,0v-9.3c0-0.6,0.4-1,1-1s1,0.4,1,1V28C39,28.6,38.6,29,38,29
			C38,29,38,29,38,29z"/>
		<path class="st0" d="M45,22c-0.6,0-1-0.4-1-1c0,0,0,0,0,0v-9.4c0-0.6,0.4-1,1-1s1,0.4,1,1V21C46,21.6,45.6,22,45,22
			C45,22,45,22,45,22z"/>
		<path class="st0" d="M52,14c-0.6,0-1-0.4-1-1c0,0,0,0,0,0V7c0-0.6,0.4-1,1-1s1,0.4,1,1v6C53,13.6,52.6,14,52,14C52,14,52,14,52,14
			z"/>
	</g>
	<path class="st0" d="M59.9,37c-0.6,0-1-0.4-1-1c0-0.3,0.2-0.6,0.4-0.8c0.5-0.3,0.9-0.8,1.2-1.3c0.3-0.5,0.4-1,0.5-1.6
		c0.3-2-2-5.2-5-6.9c-0.8-0.5-1.7-0.8-2.7-1.1c-1.6-0.4-3.2-0.5-4.8-0.2c-1.3,0.2-2.5,0.7-3.6,1.3c-0.9,0.5-1.7,1.2-2.4,1.9
		c-0.8,0.9-3.2,3.6-2.4,5.8c0.3,0.8,0.8,1.5,1.5,2c0.4,0.3,0.5,1,0.2,1.4s-1,0.5-1.4,0.2l0,0c-1-0.7-1.7-1.7-2.2-2.9
		c-1.2-3.4,1.8-6.7,2.8-7.8c1.9-2.1,4.4-3.5,7.2-3.9c3-0.5,6.1,0.1,8.7,1.6c3.2,1.9,6.5,5.6,6,8.9c-0.1,0.8-0.4,1.6-0.8,2.3
		c-0.4,0.8-1,1.4-1.7,1.9C60.3,36.9,60.1,37,59.9,37z"/>
</g>
</svg>
