<?xml version="1.0" encoding="utf-8"?>
<!-- Generator: Adobe Illustrator 28.2.0, SVG Export Plug-In . SVG Version: 6.00 Build 0)  -->
<svg version="1.1" id="Layer_1" xmlns="http://www.w3.org/2000/svg" xmlns:xlink="http://www.w3.org/1999/xlink" x="0px" y="0px"
	 viewBox="0 0 499.1 511.9" style="enable-background:new 0 0 499.1 511.9;" xml:space="preserve">
<style type="text/css">
	.st0{fill:#D69E3D;}
</style>
<g>
	<g>
		<path class="st0" d="M228.7,3.3c-3.8-4.2-10.3-4.4-14.5-0.6s-4.4,10.3-0.6,14.5c10.3,11.2,7,19-1.6,35.8
			c-9.2,17.8-21.8,42.3,0.9,73.2c2,2.7,5.1,4.2,8.3,4.2c2.1,0,4.2-0.6,6.1-2c4.6-3.4,5.6-9.8,2.2-14.3c-15.1-20.6-8.1-34.3,0.8-51.6
			C238.7,46,249.2,25.5,228.7,3.3z"/>
		<path class="st0" d="M297,22.1c-2.2-5.2-8.2-7.7-13.4-5.5c-5.2,2.2-7.7,8.2-5.5,13.4c6.8,16.4,2.1,27.4-2.9,39.1
			c-5.6,13-12.5,29.3,5.2,46.6c2,2,4.6,2.9,7.2,2.9c2.7,0,5.3-1,7.3-3.1c4-4.1,3.9-10.6-0.2-14.5c-7.3-7.2-6.1-11.1-0.7-23.8
			C299.6,64.2,307.2,46.5,297,22.1z"/>
		<path class="st0" d="M165.7,22.1c-2.2-5.2-8.2-7.7-13.4-5.5s-7.7,8.2-5.5,13.4c6.8,16.4,2.1,27.4-2.9,39.1
			c-5.6,13-12.6,29.3,5.2,46.6c2,2,4.6,2.9,7.2,2.9c2.7,0,5.3-1,7.3-3.1c4-4.1,3.9-10.6-0.2-14.5c-7.3-7.2-6.1-11.1-0.6-23.8
			C168.3,64.2,175.9,46.5,165.7,22.1z"/>
		<path class="st0" d="M435.9,197.6h-24.8v-8.9c0-21.6-17.6-39.2-39.2-39.2H62.5c-21.3,0-38.9,17.5-39.2,39.1l-0.6,61.1v0.1v92.8
			c0,37.1,18.6,70,47.2,90.1H21.7C9.8,432.7,0,442.4,0,454.3v18c0,21.9,17.8,39.6,39.7,39.6h355.1c21.9,0,39.6-17.8,39.6-39.6v-18
			c0-11.9-9.7-21.6-21.7-21.6h-48.9c20.8-14.7,36.3-36.4,43.3-61.6h5.2c47.8,0,86.8-38.9,86.8-86.7v-23.5
			C499.2,226,470.8,197.6,435.9,197.6z M411.1,259.6h20.1c3.2,0,6,2.7,6,5.9v18.9c0,13.7-11.1,24.8-24.8,24.8h-1.3L411.1,259.6
			L411.1,259.6z M412.8,453.2c0.6,0,1.1,0.5,1.1,1.1v18c0,10.5-8.6,19.1-19.1,19.1H39.7c-10.6,0-19.1-8.6-19.1-19.1v-18
			c0-0.6,0.5-1.1,1.1-1.1H135h164.4H412.8z M299.4,432.7H135c-50.6,0-91.7-40.4-91.7-90.1v-92.8l0.6-61c0.2-10.4,8.5-18.8,18.7-18.8
			H372c10.3,0,18.7,8.4,18.7,18.7v152.8c0,5.8-0.5,11.4-1.6,16.9c-0.1,0.3-0.1,0.5-0.1,0.8C380.6,401.1,343.7,432.7,299.4,432.7z
			 M478.6,284.3c0,36.5-29.7,66.2-66.2,66.2h-1.6c0.2-3,0.4-6,0.4-9v-11.9h1.3c25,0,45.3-20.3,45.3-45.3v-18.9
			c0-14.6-11.9-26.5-26.5-26.5h-20.1V218H436c23.6,0,42.7,19.2,42.7,42.7L478.6,284.3L478.6,284.3z"/>
		<path class="st0" d="M259,218.9C259,218.9,258.9,218.9,259,218.9c-14.2,0-29.3,5.9-41.7,16.1c-12.5-10.2-27.5-16.1-41.7-16.1l0,0
			c-13.3,0-25.1,5.1-34.1,14.7c-22.5,23.9-22.5,62.8,0,86.7l47.3,50.3c0.2,0.2,0.4,0.4,0.6,0.6c9.5,8.5,18.8,12.8,28.1,12.8
			c9.4,0,18.7-4.4,28.2-13.2c0.2-0.2,0.3-0.3,0.5-0.5l47-50c22.5-23.9,22.5-62.8,0-86.7C284.1,224,272.3,218.9,259,218.9z
			 M278.1,306.2l-46.8,49.7c-10.5,9.7-17.2,9.8-28,0.2l-47-49.9c-15.2-16.2-15.2-42.4,0-58.6c5.1-5.4,11.6-8.2,19.2-8.2
			c11.4,0,24.5,6.4,34.2,16.6c1.9,2.1,4.6,3.2,7.5,3.2l0,0c2.8,0,5.5-1.2,7.5-3.2c9.7-10.3,22.8-16.6,34.2-16.6l0,0
			c7.6,0,14,2.8,19.1,8.2C293.3,263.8,293.3,290.1,278.1,306.2z"/>
	</g>
</g>
</svg>
