<?xml version="1.0" encoding="UTF-8"?><svg id="Layer_1" xmlns="http://www.w3.org/2000/svg" width="295.2" height="37.4" viewBox="0 0 295.2 37.4"><path d="M67.2,4.2v23.1h-3.8v-14.9c0-.6,0-1.2,0-1.9l-7,13.1c-.3.6-.8.9-1.5.9h-.6c-.7,0-1.2-.3-1.5-.9l-7.1-13.2c0,.4,0,.7,0,1,0,.3,0,.7,0,.9v14.9h-3.8V4.2h3.2c.2,0,.4,0,.5,0,.1,0,.3,0,.4,0,.1,0,.2.1.3.2,0,0,.2.2.3.4l6.9,12.8c.2.3.3.7.5,1.1s.3.7.5,1.1c.1-.4.3-.8.5-1.1.2-.4.3-.7.5-1.1l6.8-12.8c0-.2.2-.3.3-.4,0,0,.2-.2.3-.2.1,0,.2,0,.4,0,.1,0,.3,0,.5,0h3.2Z" fill="#fff" stroke-width="0"/><path d="M86.3,10.9l-8.9,20.9c-.1.3-.3.5-.5.6s-.5.2-.9.2h-2.9l3.1-6.6-6.6-15.2h3.5c.3,0,.6,0,.7.2.2.1.3.3.4.5l3.5,8.5c.1.3.2.6.3.9,0,.3.2.6.2.9,0-.3.2-.6.3-.9,0-.3.2-.6.3-.9l3.3-8.5c0-.2.2-.4.4-.5.2-.1.4-.2.7-.2h3.2Z" fill="#fff" stroke-width="0"/><path d="M111.8,21.9c.2,0,.4,0,.6.3l1.7,1.8c-.9,1.2-2.1,2.1-3.5,2.7s-3,.9-4.9.9-3.3-.3-4.6-.9c-1.4-.6-2.5-1.4-3.5-2.4-1-1-1.7-2.3-2.2-3.7-.5-1.5-.8-3-.8-4.8s.3-3.3.8-4.8c.6-1.4,1.3-2.7,2.3-3.7,1-1,2.2-1.9,3.6-2.4,1.4-.6,2.9-.9,4.6-.9s3.2.3,4.5.8c1.3.6,2.4,1.3,3.3,2.2l-1.4,2c0,.1-.2.2-.3.3-.1,0-.3.1-.6.1s-.3,0-.5-.1c-.2,0-.4-.2-.6-.3s-.4-.3-.7-.4-.6-.3-.9-.4-.8-.2-1.2-.3c-.5,0-1-.1-1.6-.1-1,0-2,.2-2.8.6-.9.4-1.6.9-2.2,1.6-.6.7-1.1,1.6-1.4,2.6-.3,1-.5,2.2-.5,3.4s.2,2.5.6,3.5c.4,1,.9,1.9,1.5,2.6.6.7,1.4,1.2,2.2,1.6.9.4,1.8.6,2.8.6s1.1,0,1.6,0,.9-.2,1.3-.3.8-.3,1.1-.5c.4-.2.7-.5,1.1-.8.1,0,.2-.2.3-.2.1,0,.2,0,.4,0Z" fill="#fff" stroke-width="0"/><path d="M123.4,10.6c1.2,0,2.3.2,3.3.6,1,.4,1.9,1,2.6,1.7.7.7,1.3,1.6,1.6,2.7.4,1,.6,2.2.6,3.5s-.2,2.5-.6,3.5c-.4,1-.9,1.9-1.6,2.7-.7.7-1.6,1.3-2.6,1.7-1,.4-2.1.6-3.3.6s-2.3-.2-3.3-.6c-1-.4-1.9-1-2.6-1.7-.7-.7-1.3-1.6-1.6-2.7-.4-1-.6-2.2-.6-3.5s.2-2.5.6-3.5c.4-1,.9-1.9,1.6-2.7.7-.7,1.6-1.3,2.6-1.7,1-.4,2.1-.6,3.3-.6ZM123.4,24.5c1.4,0,2.4-.5,3-1.4.7-.9,1-2.3,1-4s-.3-3.1-1-4c-.7-.9-1.7-1.4-3-1.4s-2.4.5-3.1,1.4c-.7.9-1,2.3-1,4s.3,3.1,1,4c.7.9,1.7,1.4,3.1,1.4Z" fill="#fff" stroke-width="0"/><path d="M135.2,27.3v-13.4l-1.4-.2c-.3,0-.6-.2-.7-.3-.2-.2-.3-.4-.3-.7v-1.6h2.4v-.9c0-.9.1-1.8.4-2.5s.7-1.4,1.2-1.9c.5-.5,1.2-.9,1.9-1.2s1.6-.4,2.6-.4,1.5.1,2.1.3v2c0,.1-.1.3-.2.4,0,0-.2.2-.3.2s-.3,0-.4,0-.3,0-.5,0c-.5,0-.9,0-1.3.2-.4.1-.7.3-.9.5s-.5.6-.6,1-.2.9-.2,1.5v.8h6.5v-1.5c0-.9.1-1.8.4-2.5s.7-1.4,1.2-1.9c.5-.5,1.2-.9,1.9-1.2s1.6-.4,2.6-.4.7,0,1.1,0c.3,0,.7.1,1,.2v2c-.1.3-.3.5-.5.6-.3,0-.6.1-.9.1s-.9,0-1.3.2c-.4.1-.7.3-.9.5-.3.3-.5.6-.6,1-.1.4-.2.9-.2,1.5v1.3h4.3v2.8h-4.1v13.5h-4v-13.5h-6.4v13.5h-4Z" fill="#fff" stroke-width="0"/><path d="M158.5,19.6c0,.8.2,1.6.4,2.2.2.6.5,1.1.9,1.5.4.4.8.7,1.4.9.5.2,1.1.3,1.8.3s1.2,0,1.7-.2c.5-.1.9-.3,1.2-.5.3-.2.7-.3.9-.5.3-.1.5-.2.8-.2s.6.1.7.4l1.1,1.4c-.4.5-.9.9-1.5,1.3-.5.3-1.1.6-1.7.8-.6.2-1.2.4-1.8.4s-1.2.1-1.8.1c-1.1,0-2.2-.2-3.2-.6s-1.8-.9-2.6-1.7-1.3-1.7-1.7-2.8-.6-2.4-.6-3.8.2-2.2.5-3.2c.4-1,.9-1.8,1.6-2.6.7-.7,1.5-1.3,2.5-1.7,1-.4,2.1-.6,3.3-.6s2,.2,2.9.5c.9.3,1.6.8,2.3,1.4.6.6,1.1,1.4,1.5,2.3.4.9.5,2,.5,3.2s0,1-.2,1.2-.4.3-.7.3h-10.2ZM166.1,17.2c0-.5,0-1-.2-1.4-.1-.5-.4-.9-.6-1.2s-.7-.6-1.1-.8c-.4-.2-1-.3-1.5-.3-1.1,0-2,.3-2.7,1-.7.7-1.1,1.6-1.3,2.8h7.5Z" fill="#fff" stroke-width="0"/><path d="M175.6,19.6c0,.8.2,1.6.4,2.2.2.6.5,1.1.9,1.5.4.4.8.7,1.4.9.5.2,1.1.3,1.8.3s1.2,0,1.7-.2c.5-.1.9-.3,1.2-.5.3-.2.7-.3.9-.5.3-.1.5-.2.8-.2s.6.1.7.4l1.1,1.4c-.4.5-.9.9-1.5,1.3-.5.3-1.1.6-1.7.8-.6.2-1.2.4-1.8.4s-1.2.1-1.8.1c-1.1,0-2.2-.2-3.2-.6s-1.8-.9-2.6-1.7-1.3-1.7-1.7-2.8-.6-2.4-.6-3.8.2-2.2.5-3.2c.4-1,.9-1.8,1.6-2.6.7-.7,1.5-1.3,2.5-1.7,1-.4,2.1-.6,3.3-.6s2,.2,2.9.5c.9.3,1.6.8,2.3,1.4.6.6,1.1,1.4,1.5,2.3.4.9.5,2,.5,3.2s0,1-.2,1.2-.4.3-.7.3h-10.2ZM183.1,17.2c0-.5,0-1-.2-1.4-.1-.5-.4-.9-.6-1.2s-.7-.6-1.1-.8c-.4-.2-1-.3-1.5-.3-1.1,0-2,.3-2.7,1-.7.7-1.1,1.6-1.3,2.8h7.5Z" fill="#fff" stroke-width="0"/><path d="M217.6,4.2v23.1h-4.3v-10.1h-10.9v10.1h-4.3V4.2h4.3v10h10.9V4.2h4.3Z" fill="#fff" stroke-width="0"/><path d="M228.9,10.6c1.2,0,2.3.2,3.3.6,1,.4,1.9,1,2.6,1.7.7.7,1.3,1.6,1.6,2.7.4,1,.6,2.2.6,3.5s-.2,2.5-.6,3.5c-.4,1-.9,1.9-1.6,2.7-.7.7-1.6,1.3-2.6,1.7-1,.4-2.1.6-3.3.6s-2.3-.2-3.3-.6c-1-.4-1.9-1-2.6-1.7-.7-.7-1.3-1.6-1.6-2.7-.4-1-.6-2.2-.6-3.5s.2-2.5.6-3.5c.4-1,.9-1.9,1.6-2.7.7-.7,1.6-1.3,2.6-1.7,1-.4,2.1-.6,3.3-.6ZM228.9,24.5c1.4,0,2.4-.5,3-1.4s1-2.3,1-4-.3-3.1-1-4c-.7-.9-1.7-1.4-3-1.4s-2.4.5-3.1,1.4c-.7.9-1,2.3-1,4s.3,3.1,1,4c.7.9,1.7,1.4,3.1,1.4Z" fill="#fff" stroke-width="0"/><path d="M254.1,10.9v16.4h-2.4c-.5,0-.9-.2-1-.7l-.3-1.3c-.7.7-1.4,1.2-2.2,1.7-.8.4-1.8.6-2.9.6s-1.7-.2-2.4-.5c-.7-.3-1.3-.7-1.7-1.3s-.8-1.2-1.1-2c-.2-.8-.4-1.6-.4-2.5v-10.4h4v10.4c0,1,.2,1.8.7,2.3.5.5,1.2.8,2.1.8s1.3-.2,1.9-.5c.6-.3,1.2-.7,1.7-1.3v-11.9h4Z" fill="#fff" stroke-width="0"/><path d="M268,14.1c-.1.2-.2.3-.3.4s-.3.1-.4.1-.4,0-.6-.2c-.2-.1-.5-.2-.8-.4s-.6-.3-1-.4-.8-.2-1.3-.2c-.8,0-1.4.2-1.8.5-.4.3-.7.8-.7,1.3s.1.6.3.9c.2.2.5.5.9.6.4.2.8.3,1.3.5.5.1,1,.3,1.5.5.5.2,1,.4,1.5.6.5.2.9.5,1.3.8.4.3.7.7.9,1.2.2.5.3,1,.3,1.7s-.1,1.5-.4,2.2c-.3.7-.7,1.2-1.3,1.7-.6.5-1.2.9-2.1,1.1-.8.3-1.8.4-2.8.4s-1.1,0-1.7-.2c-.5-.1-1.1-.2-1.6-.4-.5-.2-1-.4-1.4-.6-.4-.2-.8-.5-1.1-.8l.9-1.5c.1-.2.3-.3.4-.4.2,0,.4-.1.6-.1s.5,0,.7.2c.2.1.5.3.8.4s.6.3,1,.4c.4.1.9.2,1.5.2s.9,0,1.2-.2c.3-.1.6-.3.8-.4.2-.2.4-.4.5-.6.1-.2.2-.5.2-.7,0-.4-.1-.7-.3-.9-.2-.2-.5-.5-.9-.6-.4-.2-.8-.3-1.3-.5s-1-.3-1.5-.5c-.5-.2-1-.4-1.5-.6-.5-.2-.9-.5-1.3-.9-.4-.4-.7-.8-.9-1.3-.2-.5-.3-1.1-.3-1.9s.1-1.3.4-1.9.7-1.1,1.2-1.6c.5-.5,1.2-.8,1.9-1.1.8-.3,1.7-.4,2.7-.4s2.2.2,3.1.6,1.7.9,2.3,1.5l-.9,1.4Z" fill="#fff" stroke-width="0"/><path d="M275.1,19.6c0,.8.2,1.6.4,2.2.2.6.5,1.1.9,1.5.4.4.8.7,1.4.9.5.2,1.1.3,1.8.3s1.2,0,1.7-.2c.5-.1.9-.3,1.2-.5.3-.2.7-.3.9-.5.3-.1.5-.2.8-.2s.6.1.7.4l1.1,1.4c-.4.5-.9.9-1.5,1.3-.5.3-1.1.6-1.7.8-.6.2-1.2.4-1.8.4s-1.2.1-1.8.1c-1.1,0-2.2-.2-3.2-.6s-1.8-.9-2.6-1.7-1.3-1.7-1.7-2.8-.6-2.4-.6-3.8.2-2.2.5-3.2c.4-1,.9-1.8,1.6-2.6.7-.7,1.5-1.3,2.5-1.7,1-.4,2.1-.6,3.3-.6s2,.2,2.9.5c.9.3,1.6.8,2.3,1.4.6.6,1.1,1.4,1.5,2.3.4.9.5,2,.5,3.2s0,1-.2,1.2-.4.3-.7.3h-10.2ZM282.7,17.2c0-.5,0-1-.2-1.4-.1-.5-.4-.9-.6-1.2s-.7-.6-1.1-.8c-.4-.2-1-.3-1.5-.3-1.1,0-2,.3-2.7,1-.7.7-1.1,1.6-1.3,2.8h7.5Z" fill="#fff" stroke-width="0"/><path d="M9.9,0c0,1.7-.3,2.7-.5,3.6-.3,1-.5,2-.5,4.1s.5,2.9.9,3.9c.5,1.1,1.1,2.3,1.1,4.6s0,.7,0,1c.3-.4.7-.8,1.1-1.2,1.9-1.9,4.1-3.2,6.4-3.9,0,0,0,0,0,0,0-6.3-3.7-11.4-8.5-11.9Z" fill="#fff" stroke-width="0"/><path d="M13.6,29.2c.9-.6,1.8-1.1,3.2-2.5,1.4-1.4,1.7-2.4,2.1-3.4.4-1.2.8-2.4,2.5-4,1.6-1.6,2.5-2.2,3.5-2.7.8-.5,1.5-.9,2.6-2-1.4-1.1-3.2-1.7-5.1-1.7-3.1,0-6.5,1.4-9.3,4.2-2.3,2.3-3.7,5.1-4,7.7,0,0,0,0,0,0,0,0,0,0,0,0-.4,2.5.2,4.9,1.6,6.7,1.2-1.2,2.1-1.7,2.9-2.2Z" fill="#fff" stroke-width="0"/><path d="M7.7,23.7c.3-1.2.7-2.5,1.3-3.7.2-.9.4-1.9.4-3.8s-.5-2.9-.9-3.9c-.5-1.1-1.1-2.3-1.1-4.6s.3-3.3.5-4.4c.2-.9.4-1.8.5-3.3C3.7.5,0,5.7,0,11.9s3.3,10.9,7.7,11.8Z" fill="#fff" stroke-width="0"/><path d="M18.1,34c2.9-.4,5.7-1.8,8-4.1,2.3-2.3,3.7-5.1,4.1-8,.3-2.5-.3-4.8-1.6-6.4-1.2,1.2-2.1,1.7-2.9,2.2-.9.6-1.8,1.1-3.2,2.5-1.4,1.4-1.7,2.4-2.1,3.4-.4,1.2-.8,2.4-2.5,4-1.6,1.6-2.5,2.2-3.5,2.7-.8.5-1.5.9-2.7,2,1.7,1.4,3.9,1.9,6.4,1.6Z" fill="#fff" stroke-width="0"/></svg>